<svg width="226" height="254" viewBox="0 0 226 254" fill="none" xmlns="http://www.w3.org/2000/svg">
<path d="M8.23659 65.2268C10.0148 65.2314 11.7439 65.847 13.1655 66.9816C14.5872 68.1161 15.625 69.7088 16.124 71.5215H95.9565C96.8511 71.5253 97.7375 71.3401 98.5642 70.9768C99.3909 70.6135 100.141 70.0793 100.772 69.4052L125.973 42.6727C127.03 41.5445 128.288 40.65 129.672 40.0411C131.057 39.4321 132.541 39.1208 134.04 39.1251H151.667C153.472 39.1233 155.203 38.3609 156.479 37.0052C157.755 35.6496 158.473 33.8114 158.475 31.8942V17.5546C156.573 16.9666 154.935 15.6698 153.862 13.9023C152.788 12.1347 152.351 10.0151 152.63 7.93272C152.91 5.85033 153.888 3.94497 155.384 2.56658C156.88 1.18819 158.794 0.429321 160.774 0.429321C162.755 0.429321 164.669 1.18819 166.164 2.56658C167.66 3.94497 168.638 5.85033 168.918 7.93272C169.197 10.0151 168.76 12.1347 167.686 13.9023C166.613 15.6698 164.975 16.9666 163.073 17.5546V31.8942C163.07 35.1062 161.867 38.1855 159.729 40.4567C157.59 42.7279 154.691 44.0054 151.667 44.009H134.04C133.145 44.0063 132.259 44.192 131.433 44.5553C130.606 44.9186 129.855 45.4522 129.224 46.1253L104.055 72.8578C102.995 73.9914 101.733 74.889 100.342 75.4981C98.9516 76.1073 97.4606 76.4157 95.9565 76.4054H56.0402H16.124C15.6969 77.9637 14.8696 79.3648 13.7349 80.4516C12.6001 81.5385 11.2028 82.2682 9.69952 82.5589C8.19623 82.8496 6.64638 82.6899 5.22377 82.0976C3.80115 81.5053 2.562 80.5039 1.64519 79.2055C0.728378 77.9072 0.170166 76.3633 0.0331421 74.747C-0.103897 73.1306 0.185699 71.5057 0.8694 70.0543C1.5531 68.6029 2.60388 67.3825 3.90401 66.5298C5.20412 65.6771 6.70218 65.2259 8.23019 65.2268H8.23659Z" fill="url(#paint0_linear_1_80)"/>
<path d="M8.35091 188.773C10.1397 188.768 11.879 188.153 13.309 187.018C14.7391 185.884 15.7831 184.291 16.285 182.478H96.5899C97.4898 182.475 98.3815 182.66 99.2131 183.023C100.045 183.386 100.8 183.921 101.434 184.595L126.784 211.327C127.848 212.455 129.112 213.35 130.505 213.959C131.898 214.568 133.391 214.879 134.898 214.875L208.564 214.874C210.38 214.876 212.121 215.638 213.405 216.994C214.689 218.349 215.411 220.188 215.413 222.105V236.444C213.5 237.032 211.852 238.329 210.772 240.097C209.692 241.864 209.252 243.984 209.534 246.066C209.815 248.149 210.798 250.054 212.303 251.432C213.808 252.811 215.733 253.57 217.725 253.57C219.718 253.57 221.643 252.811 223.148 251.432C224.653 250.054 225.636 248.149 225.917 246.066C226.198 243.984 225.759 241.864 224.679 240.097C223.599 238.329 221.951 237.032 220.038 236.444V222.105C220.035 218.893 218.825 215.814 216.674 213.542C214.523 211.271 211.606 209.994 208.564 209.99L134.898 209.991C133.999 209.993 133.107 209.808 132.276 209.445C131.444 209.081 130.689 208.548 130.054 207.875L104.736 181.142C103.67 180.008 102.4 179.111 101.001 178.502C99.6027 177.893 98.1029 177.584 96.5899 177.594H16.285C15.8554 176.036 15.0232 174.635 13.8817 173.548C12.7403 172.461 11.3347 171.732 9.82249 171.441C8.3103 171.15 6.7513 171.31 5.32027 171.902C3.88924 172.495 2.64275 173.496 1.7205 174.794C0.798264 176.093 0.236755 177.636 0.0989227 179.253C-0.0389099 180.869 0.25238 182.494 0.940125 183.946C1.62787 185.397 2.68488 186.617 3.99269 187.47C5.30051 188.323 6.8074 188.774 8.34447 188.773H8.35091Z" fill="url(#paint1_linear_1_80)"/>
<defs>
<linearGradient id="paint0_linear_1_80" x1="169" y1="41.4989" x2="23" y2="41.4989" gradientUnits="userSpaceOnUse">
<stop stop-color="#E7E7E7"/>
<stop offset="1" stop-color="#FAFAFA"/>
</linearGradient>
<linearGradient id="paint1_linear_1_80" x1="226" y1="212.501" x2="30.8141" y2="212.501" gradientUnits="userSpaceOnUse">
<stop stop-color="#E7E7E7"/>
<stop offset="1" stop-color="#FAFAFA"/>
</linearGradient>
</defs>
</svg>
