<svg width="226" height="246" viewBox="0 0 226 246" fill="none" xmlns="http://www.w3.org/2000/svg">
<path d="M217.763 63.0538C215.985 63.0583 214.256 63.6556 212.834 64.7566C211.413 65.8577 210.375 67.4032 209.876 69.1624H130.044C129.149 69.166 128.262 68.9863 127.436 68.6338C126.609 68.2812 125.859 67.7627 125.228 67.1086L100.027 41.1667C98.9695 40.0719 97.7124 39.2039 96.3278 38.6129C94.9433 38.022 93.4588 37.7199 91.9603 37.7241H74.3332C72.5281 37.7223 70.7975 36.9825 69.5211 35.6669C68.2447 34.3513 67.5268 32.5675 67.5251 30.707V16.7915C69.4267 16.221 71.0647 14.9625 72.1383 13.2472C73.2119 11.5319 73.6491 9.47501 73.3695 7.45421C73.0899 5.43341 72.1124 3.5844 70.6164 2.24677C69.1204 0.90915 67.2064 0.172729 65.226 0.172729C63.2455 0.172729 61.3315 0.90915 59.8355 2.24677C58.3395 3.5844 57.362 5.43341 57.0824 7.45421C56.8028 9.47501 57.24 11.5319 58.3136 13.2472C59.3872 14.9625 61.0252 16.221 62.9268 16.7915V30.707C62.9302 33.824 64.133 36.8123 66.2714 39.0163C68.4098 41.2203 71.3091 42.46 74.3332 42.4635H91.9603C92.8548 42.4609 93.7409 42.6411 94.5674 42.9937C95.394 43.3462 96.1445 43.864 96.7757 44.5172L121.945 70.4591C123.005 71.5591 124.267 72.4302 125.658 73.0213C127.048 73.6125 128.539 73.9118 130.044 73.9018H169.96H209.876C210.303 75.4139 211.13 76.7736 212.265 77.8283C213.4 78.883 214.797 79.5911 216.3 79.8733C217.804 80.1554 219.354 80.0004 220.776 79.4256C222.199 78.8509 223.438 77.879 224.355 76.6191C225.272 75.3592 225.83 73.861 225.967 72.2924C226.104 70.7238 225.814 69.1469 225.131 67.7385C224.447 66.33 223.396 65.1457 222.096 64.3182C220.796 63.4908 219.298 63.0529 217.77 63.0538H217.763Z" fill="url(#paint0_linear_1_48)"/>
<path d="M217.649 182.946C215.86 182.942 214.121 182.344 212.691 181.243C211.261 180.142 210.217 178.597 209.715 176.838H129.41C128.51 176.834 127.619 177.014 126.787 177.366C125.955 177.719 125.2 178.237 124.566 178.891L99.2155 204.833C98.1523 205.928 96.8877 206.796 95.4949 207.387C94.1022 207.978 92.6089 208.28 91.1015 208.276L17.4358 208.275C15.62 208.277 13.8791 209.017 12.5951 210.332C11.3112 211.648 10.5891 213.432 10.5874 215.292V229.208C12.5002 229.778 14.1479 231.037 15.2279 232.752C16.3078 234.467 16.7476 236.524 16.4664 238.545C16.1852 240.566 15.2018 242.415 13.697 243.752C12.1921 245.09 10.2668 245.826 8.27464 245.826C6.28245 245.826 4.35712 245.09 2.85228 243.752C1.34744 242.415 0.364109 240.566 0.082881 238.545C-0.198347 236.524 0.241412 234.467 1.32139 232.752C2.40137 231.037 4.04906 229.778 5.96186 229.208V215.292C5.96526 212.175 7.1752 209.187 9.32625 206.983C11.4773 204.779 14.3938 203.539 17.4358 203.536L91.1015 203.536C92.0013 203.539 92.8927 203.359 93.7241 203.006C94.5556 202.654 95.3106 202.136 95.9455 201.483L121.264 175.541C122.33 174.441 123.6 173.57 124.999 172.979C126.397 172.387 127.897 172.088 129.41 172.098H209.715C210.145 170.586 210.977 169.226 212.118 168.172C213.26 167.117 214.665 166.409 216.178 166.127C217.69 165.844 219.249 165.999 220.68 166.574C222.111 167.149 223.357 168.121 224.279 169.381C225.202 170.641 225.763 172.139 225.901 173.707C226.039 175.276 225.748 176.853 225.06 178.261C224.372 179.67 223.315 180.854 222.007 181.682C220.699 182.509 219.193 182.947 217.656 182.946H217.649Z" fill="url(#paint1_linear_1_48)"/>
<defs>
<linearGradient id="paint0_linear_1_48" x1="57" y1="40.0276" x2="203" y2="40.0276" gradientUnits="userSpaceOnUse">
<stop stop-color="#556DD9"/>
<stop offset="1" stop-color="#FAFAFA"/>
</linearGradient>
<linearGradient id="paint1_linear_1_48" x1="4.22081e-07" y1="205.972" x2="195.186" y2="205.972" gradientUnits="userSpaceOnUse">
<stop stop-color="#E7E7E7"/>
<stop offset="1" stop-color="#FAFAFA"/>
</linearGradient>
</defs>
</svg>
